<svg xmlns="http://www.w3.org/2000/svg" viewBox="0 0 128 128" role="img" aria-label="Cyber shield badge">
  <defs>
    <linearGradient id="cyMain" x1="0" y1="0" x2="1" y2="1">
      <stop offset="0%" stop-color="#22d3ee"/>
      <stop offset="50%" stop-color="#2563eb"/>
      <stop offset="100%" stop-color="#7c3aed"/>
    </linearGradient>
  </defs>
  <path d="M64 8L108 24v34c0 28-18 50-44 62C38 108 20 86 20 58V24L64 8z" fill="url(#cyMain)"/>
  <path d="M64 18l33 12v28c0 22-14 39-33 50C45 97 31 80 31 58V30l33-12z" fill="#0b1120" opacity="0.35"/>
  <path d="M64 40c9 0 16 7 16 16s-7 16-16 16-16-7-16-16 7-16 16-16z" fill="#e0f2fe" opacity="0.85"/>
  <path d="M64 46l7 4v8l-7 4-7-4v-8l7-4z" fill="#312e81"/>
</svg>
