<svg xmlns="http://www.w3.org/2000/svg" viewBox="0 0 128 128" role="img" aria-label="Silver shield badge">
  <defs>
    <linearGradient id="silverMain" x1="0" y1="0" x2="1" y2="1">
      <stop offset="0%" stop-color="#f8fafc"/>
      <stop offset="45%" stop-color="#94a3b8"/>
      <stop offset="100%" stop-color="#334155"/>
    </linearGradient>
    <linearGradient id="silverCore" x1="0" y1="0" x2="0" y2="1">
      <stop offset="0%" stop-color="#ffffff"/>
      <stop offset="100%" stop-color="#cbd5e1"/>
    </linearGradient>
  </defs>
  <path d="M64 8L108 24v34c0 28-18 50-44 62C38 108 20 86 20 58V24L64 8z" fill="url(#silverMain)"/>
  <path d="M64 18l33 12v28c0 22-14 39-33 50C45 97 31 80 31 58V30l33-12z" fill="url(#silverCore)" opacity="0.96"/>
  <circle cx="64" cy="58" r="18" fill="#0f172a" opacity="0.22"/>
  <path d="M64 43l4.9 10 11 .9-8.3 7.1 2.5 10.8L64 66l-10.1 5.8 2.5-10.8-8.3-7.1 11-.9L64 43z" fill="#ffffff"/>
</svg>
